PathFileType	4	(X/Y/Z)	pose_F01_0-78.trc
DataRate	CameraRate	NumFrames	NumMarkers	Units	OrigDataRate	OrigDataStartFrame	OrigNumFrames
30	30	5	21	m	30	39	78
Frame#	Time	CHip			RHip			RKnee			RAnkle			RBigToe			RSmallToe			RHeel			LHip			LKnee			LAnkle			LBigToe			LSmallToe			LHeel			Neck			Nose			RShoulder			RElbow			RWrist			LShoulder			LElbow			LWrist			
		X1	Y1	Z1	X2	Y2	Z2	X3	Y3	Z3	X4	Y4	Z4	X5	Y5	Z5	X6	Y6	Z6	X7	Y7	Z7	X8	Y8	Z8	X9	Y9	Z9	X10	Y10	Z10	X11	Y11	Z11	X12	Y12	Z12	X13	Y13	Z13	X14	Y14	Z14	X15	Y15	Z15	X16	Y16	Z16	X17	Y17	Z17	X18	Y18	Z18	X19	Y19	Z19	X20	Y20	Z20	X21	Y21	Z21	
39	1.3	-0.31933104685306735	1.8247070179626108	-0.38412457105593445	-0.3268154340855278	1.8226100908840297	-0.3292529093062066	-0.32737548640475883	1.70618715770958	-0.3132618982260779	-0.32319407818618234	1.5830793765982398	-0.3074195864820814	-0.2993041308665404	1.558477146960821	-0.3365423777443108	-0.3038422978118353	1.558004741989301	-0.30240255037381053	-0.3305653760638697	1.5763621523445606	-0.3037491327606	-0.3083029671379976	1.828053081085943	-0.4464448899978489	-0.322105251458575	1.7099088793516253	-0.43103783374810517	-0.31506778225582666	1.6003009927899465	-0.43663344899895595	-0.2846646310306469	1.5729042342333337	-0.4756114093523361	-0.28990672330579226	1.5774247744883094	-0.4930038983375945	-0.3211326260015258	1.5904309118907718	-0.4199266339399512	-0.29100031473787435	1.9622547337050105	-0.4355730500762374	-0.2620237100021158	1.9885581363538531	-0.476452374297638	-0.3006414430837787	1.9585236121943863	-0.3477053038766098	-0.30617691401142777	1.873503502938161	-0.3414129091756691	-0.3053050543283923	1.7914583062447347	-0.34951586877839785	-0.2842795662648917	1.96657133875676	-0.5222665390046145	-0.2951300900198729	1.895918460296997	-0.5134044857742035	-0.2963334145389961	1.8281893929454276	-0.477215645746365
40	1.3333333333333333	-0.3211072305582863	1.826461518611419	-0.38212487280914226	-0.3264560745639259	1.8242168183878493	-0.3292363798145963	-0.3273802298606785	1.705967025864346	-0.31324804085905267	-0.3229605921054484	1.5841434522962714	-0.3079353548044717	-0.30047347748602754	1.5582625441445999	-0.33980974947544645	-0.3069290509636976	1.5579336581448617	-0.3036263541750307	-0.330496717459119	1.5785902156933496	-0.30434448728661617	-0.31607454341821484	1.8267076653415315	-0.4377532326406188	-0.3222666367028736	1.7113414771481423	-0.43107665407240536	-0.3153390151068049	1.6024623414394148	-0.43654340184507645	-0.285899001680085	1.5739487268891197	-0.47890797548324215	-0.29031958884006887	1.5801157064094113	-0.49290301762114125	-0.3199105562677245	1.5926272199009444	-0.42134003025759587	-0.28935064524776916	1.9579144597279048	-0.43718610653967416	-0.25509176021614915	1.982279398313968	-0.47864292986959883	-0.2970398876931124	1.9561593953036414	-0.35129262538682876	-0.3057058887764088	1.873937625801637	-0.3469605297069007	-0.30820419051948533	1.7957905917269896	-0.3565228351931405	-0.28188695704558797	1.9575823258525356	-0.5287010380929287	-0.2961518761408207	1.8853118262232205	-0.511869870471917	-0.30551186943900893	1.8185553575350908	-0.4666528525922381
41	1.3666666666666667	-0.3243034600948875	1.8300460068920892	-0.3837828502427255	-0.32956044604467466	1.8283565623722502	-0.33107777394321486	-0.3280730934736709	1.7108882583714573	-0.31748779702434443	-0.3249518057329837	1.5845078637316563	-0.30573046642745233	-0.30047468942419536	1.5578201602877104	-0.3402366932829208	-0.3067949689570264	1.557017079999755	-0.3039207872399283	-0.3327460905126994	1.5786908449903843	-0.3014901500423036	-0.31729079788259534	1.831499162670217	-0.4414386640755036	-0.32400977351329346	1.718850904701517	-0.43002394059895754	-0.3155518709023668	1.6037301288536745	-0.4363783681353264	-0.2859892658886403	1.5748002772648093	-0.4786609829643833	-0.2904642057315771	1.58108371715238	-0.49266934834181036	-0.3205559405773112	1.594391202172607	-0.4205618479960227	-1.7247990437628997	1.8859283992900286	1.1417884523042459	-0.25786370012755633	1.9694600421314892	-0.47409249374358053	-0.29550335851885373	1.9496494739634018	-0.35255917271657167	-0.30718955061827363	1.866520927703082	-0.34906489768821447	-0.3139144889126401	1.788331199833542	-0.35391617012032744	-0.2809438518828199	1.9531466592442597	-0.5333812166267123	-0.29608657270175115	1.8811126249847059	-0.5111740611108787	-0.3063459536020731	1.8116641460968774	-0.4603285388782051
42	1.4	-0.32529568991751956	1.8272487168446436	-0.38660494805564577	-0.3305483046910295	1.8251174489190054	-0.33396566870242583	-0.33020174354435883	1.710484927573461	-0.315365355673337	-0.3250935513337062	1.585703050758092	-0.30560342082190306	-0.3003640784614888	1.5578795719933278	-0.3397896865872708	-0.30388113104355	1.5578901010236894	-0.30238812432030737	-0.3306608754303125	1.579462040587952	-0.30401038475381886	-0.31919350085814907	1.8272299649091446	-0.43892457254388423	-0.3239886134672303	1.7182735353898153	-0.4299385044829083	-0.3155611920038037	1.6034645802020806	-0.4363288466867691	-0.2859459246276241	1.5741289186737684	-0.47860637261669015	-0.2902954862560046	1.5797584619336025	-0.4928350769867305	-0.32188495777234083	1.5927857607286098	-0.4190718762507856	-0.29003873689548076	1.9380755939634964	-0.45046158273420334	-0.25912601662252804	1.938837768236531	-0.4712827839105664	-0.2915053099018996	1.9370560996724262	-0.36797206214161055	-0.30749149588305574	1.8582293703624193	-0.356178940776725	-0.3143141986216131	1.775811423839263	-0.35099979977409146	-1.481231935994332	1.8734219572575408	0.7415022567160052	-0.2987061550355382	1.8679149916585949	-0.5071200206936475	-0.3115129768477409	1.8030361838292743	-0.4541815541036175
43	1.4333333333333333	-0.3265743813085766	1.8220569488284206	-0.38902018142367895	-0.33078957105320517	1.8211534593422947	-0.3334338141972958	-0.33010636631234885	1.7095845386438162	-0.31535900771998826	-0.3249604739451407	1.58515710530636	-0.3056234078868252	-0.3006918138335291	1.5568921936517575	-0.3393581167617844	-0.3069524842478005	1.558000378587136	-0.30362013056742343	-0.33050884660114366	1.57897228229257	-0.3040491511969654	-0.3206497812405722	1.8207306866220638	-0.44107521500266283	-0.3237499578152908	1.718637096201901	-0.430363028866863	-0.3153629597429115	1.6025055523454907	-0.43656513399094626	-0.28475454209715667	1.5733834103238373	-0.4756592119680443	-0.2901160770282216	1.5785599715877243	-0.49304828641277754	-0.3187637226012565	1.5926309573590682	-0.4181672047511819	-0.2891766916160357	1.9341637034114008	-0.45485005241882953	-0.26562694421054417	1.9248881766881667	-0.47088501344529216	-0.2926407605173633	1.931829923829841	-0.37026471761735585	-0.31157277811227346	1.8490039230245299	-0.3505213476992611	-0.3146052749295344	1.7697661976241097	-0.34987024263880934	-1.4775037016014965	1.8685926203827905	0.7363834589969	-0.29730867037902886	1.8650822372380016	-0.5031288828223776	-0.3146783081831806	1.79432929058098	-0.4398114895327224
